<svg xmlns="http://www.w3.org/2000/svg" viewBox="0 0 400 420">

  <!-- === SVG 3 — What I Build === -->

  <!-- === DECORATIVE FLOATING DOTS === -->
  <circle cx="20"  cy="50"  r="4"   fill="#4ecca3" opacity="0.40"/>
  <circle cx="380" cy="80"  r="3"   fill="#8ECAE6" opacity="0.35"/>
  <circle cx="15"  cy="220" r="3"   fill="#4ecca3" opacity="0.30"/>
  <circle cx="385" cy="320" r="3.5" fill="#8ECAE6" opacity="0.30"/>
  <circle cx="60"  cy="390" r="2.5" fill="#4ecca3" opacity="0.25"/>

  <!-- === WINDOW 1 — Browser Frame (left) === -->
  <rect x="14" y="100" width="110" height="84" rx="7"
        fill="#12121A" stroke="#2d2d4e" stroke-width="2"/>
  <!-- Title bar -->
  <rect x="14" y="100" width="110" height="18" rx="7" fill="#2d2d4e"/>
  <rect x="14" y="109" width="110" height="9"       fill="#2d2d4e"/>
  <!-- Traffic dots -->
  <circle cx="26" cy="109" r="3.5" fill="#4ecca3" opacity="0.9"/>
  <circle cx="38" cy="109" r="3.5" fill="#8ECAE6" opacity="0.7"/>
  <circle cx="50" cy="109" r="3.5" fill="#2d2d4e"  opacity="0.8"/>
  <!-- Wireframe: header bar -->
  <rect x="22" y="124" width="94" height="10" rx="2" fill="#2d2d4e" opacity="0.7"/>
  <!-- Wireframe: two columns -->
  <rect x="22" y="140" width="44" height="36" rx="2" fill="#1a1a2e" stroke="#2d2d4e" stroke-width="1"/>
  <rect x="72" y="140" width="44" height="36" rx="2" fill="#1a1a2e" stroke="#2d2d4e" stroke-width="1"/>
  <!-- Column detail lines -->
  <line x1="26" y1="148" x2="62" y2="148" stroke="#4ecca3" stroke-width="1" opacity="0.4"/>
  <line x1="26" y1="155" x2="55" y2="155" stroke="#2d2d4e" stroke-width="1" opacity="0.6"/>
  <line x1="26" y1="162" x2="58" y2="162" stroke="#2d2d4e" stroke-width="1" opacity="0.6"/>
  <line x1="76" y1="148" x2="112" y2="148" stroke="#4ecca3" stroke-width="1" opacity="0.4"/>
  <line x1="76" y1="155" x2="105" y2="155" stroke="#2d2d4e" stroke-width="1" opacity="0.6"/>
  <line x1="76" y1="162" x2="108" y2="162" stroke="#2d2d4e" stroke-width="1" opacity="0.6"/>

  <!-- === WINDOW 2 — Mobile Phone Frame (top-right) === -->
  <rect x="272" y="40" width="68" height="116" rx="12"
        fill="#12121A" stroke="#2d2d4e" stroke-width="2"/>
  <!-- Inner screen -->
  <rect x="279" y="52" width="54" height="92" rx="5" fill="#0A0A0F"/>
  <!-- Notch -->
  <rect x="296" y="44" width="20" height="6" rx="3" fill="#0A0A0F"/>
  <!-- App content lines -->
  <rect x="283" y="58" width="46" height="8" rx="2" fill="#2d2d4e" opacity="0.8"/>
  <circle cx="290" cy="75" r="6" fill="#4ecca3" opacity="0.3" stroke="#4ecca3" stroke-width="1"/>
  <line x1="300" y1="71" x2="324" y2="71" stroke="#2d2d4e" stroke-width="2" stroke-linecap="round" opacity="0.7"/>
  <line x1="300" y1="78" x2="320" y2="78" stroke="#2d2d4e" stroke-width="2" stroke-linecap="round" opacity="0.5"/>
  <line x1="283" y1="90" x2="329" y2="90" stroke="#2d2d4e" stroke-width="1.2" opacity="0.4"/>
  <rect x="283" y="96" width="46" height="7" rx="2" fill="#1a1a2e" opacity="0.8"/>
  <rect x="283" y="108" width="22" height="7" rx="2" fill="#1a1a2e" opacity="0.7"/>
  <rect x="308" y="108" width="21" height="7" rx="2" fill="#1a1a2e" opacity="0.7"/>
  <rect x="283" y="120" width="46" height="7" rx="2" fill="#1a1a2e" opacity="0.7"/>
  <circle cx="306" cy="148" r="4" fill="#2d2d4e"/>

  <!-- === WINDOW 3 — Terminal (bottom-right) === -->
  <rect x="265" y="270" width="122" height="90" rx="7"
        fill="#0A0A0F" stroke="#2d2d4e" stroke-width="2"/>
  <!-- Title bar -->
  <rect x="265" y="270" width="122" height="18" rx="7" fill="#2d2d4e"/>
  <rect x="265" y="279" width="122" height="9"        fill="#2d2d4e"/>
  <!-- Traffic dots -->
  <circle cx="277" cy="279" r="3.5" fill="#4ecca3" opacity="0.9"/>
  <circle cx="289" cy="279" r="3.5" fill="#8ECAE6" opacity="0.7"/>
  <circle cx="301" cy="279" r="3.5" fill="#2d2d4e"  opacity="0.8"/>
  <!-- Terminal text lines -->
  <text x="273" y="303" font-family="monospace" font-size="7.5" fill="#4ecca3" opacity="0.9">$ npm run dev</text>
  <text x="273" y="315" font-family="monospace" font-size="7.5" fill="#8ECAE6" opacity="0.75">  ✓ compiled</text>
  <text x="273" y="327" font-family="monospace" font-size="7.5" fill="#4ecca3" opacity="0.80">  → localhost:3000</text>
  <text x="273" y="339" font-family="monospace" font-size="7.5" fill="#4ecca3" opacity="0.55">█</text>

  <!-- === LEGS / JEANS === -->
  <path d="M178,336 Q172,368 170,405"
        fill="none" stroke="#1a1a2e" stroke-width="26" stroke-linecap="round"/>
  <path d="M202,336 Q210,368 214,405"
        fill="none" stroke="#1a1a2e" stroke-width="26" stroke-linecap="round"/>
  <ellipse cx="169" cy="408" rx="16" ry="7"
           fill="#0A0A0F" stroke="#2d2d4e" stroke-width="1.5"/>
  <ellipse cx="215" cy="408" rx="16" ry="7"
           fill="#0A0A0F" stroke="#2d2d4e" stroke-width="1.5"/>

  <!-- === TORSO / HOODIE === -->
  <!-- Left arm outstretched toward browser window -->
  <path d="M157,280 Q128,275 100,270"
        fill="none" stroke="#2d2d4e" stroke-width="22" stroke-linecap="round"/>
  <ellipse cx="99" cy="270" rx="12" ry="9" fill="#FDBCB4"/>

  <!-- Right arm outstretched toward phone/terminal -->
  <path d="M243,278 Q268,268 285,258"
        fill="none" stroke="#2d2d4e" stroke-width="22" stroke-linecap="round"/>
  <ellipse cx="286" cy="257" rx="12" ry="9" fill="#FDBCB4"/>

  <!-- Hoodie body -->
  <rect x="158" y="270" width="84" height="72" rx="16"
        fill="#2d2d4e" stroke="#1a1a2e" stroke-width="1.5"/>
  <line x1="200" y1="273" x2="200" y2="337"
        stroke="#1a1a2e" stroke-width="1.2" opacity="0.6"/>
  <path d="M180,310 Q200,304 220,310 L220,326 Q200,322 180,326 Z"
        fill="#1a1a2e" stroke="#2d2d4e" stroke-width="1"/>
  <path d="M191,281 Q188,292 190,302"
        fill="none" stroke="#8ECAE6" stroke-width="1.2" stroke-linecap="round" opacity="0.55"/>
  <path d="M207,281 Q210,292 208,302"
        fill="none" stroke="#8ECAE6" stroke-width="1.2" stroke-linecap="round" opacity="0.55"/>

  <!-- === NECK === -->
  <rect x="191" y="258" width="18" height="16" rx="5" fill="#FDBCB4"/>

  <!-- === HEAD === -->
  <ellipse cx="200" cy="234" rx="34" ry="32" fill="#FDBCB4"/>

  <!-- === HAIR === -->
  <ellipse cx="200" cy="217" rx="35" ry="24" fill="#2C2C2C"/>
  <path d="M170,225 Q177,200 193,207 Q186,217 189,231" fill="#2C2C2C"/>
  <path d="M180,220 Q190,195 203,202 Q197,213 198,228" fill="#2C2C2C"/>
  <path d="M198,220 Q208,196 221,203 Q214,214 212,229" fill="#2C2C2C"/>
  <path d="M208,223 Q218,202 228,209 Q222,219 220,232" fill="#2C2C2C"/>
  <path d="M168,231 Q164,241 168,251"
        fill="none" stroke="#2C2C2C" stroke-width="9" stroke-linecap="round"/>
  <path d="M232,231 Q236,241 232,251"
        fill="none" stroke="#2C2C2C" stroke-width="9" stroke-linecap="round"/>

  <!-- === FACE (excited — wide eyes, open smile) === -->
  <ellipse cx="189" cy="237" rx="5.5" ry="6"   fill="#2C2C2C"/>
  <ellipse cx="211" cy="237" rx="5.5" ry="6"   fill="#2C2C2C"/>
  <circle cx="191.2" cy="234.8" r="1.6" fill="white" opacity="0.90"/>
  <circle cx="213.2" cy="234.8" r="1.6" fill="white" opacity="0.90"/>
  <!-- Nose -->
  <path d="M197,245 Q200,249 203,245"
        fill="none" stroke="#e8a898" stroke-width="1.3" stroke-linecap="round"/>
  <!-- Excited wide smile -->
  <path d="M189,254 Q200,264 211,254"
        fill="none" stroke="#e8a898" stroke-width="2" stroke-linecap="round"/>
  <!-- Blush -->
  <ellipse cx="181" cy="246" rx="5.5" ry="3" fill="#e8a898" opacity="0.32"/>
  <ellipse cx="219" cy="246" rx="5.5" ry="3" fill="#e8a898" opacity="0.32"/>

  <!-- === HEADPHONES === -->
  <path d="M168,233 Q168,201 200,199 Q232,201 232,231"
        fill="none" stroke="#1a1a2e" stroke-width="5.5" stroke-linecap="round"/>
  <ellipse cx="168" cy="237" rx="10" ry="12"
           fill="#2d2d4e" stroke="#1a1a2e" stroke-width="1.5"/>
  <ellipse cx="168" cy="237" rx="6"  ry="7.5" fill="#4ecca3" opacity="0.80"/>
  <ellipse cx="232" cy="235" rx="10" ry="12"
           fill="#2d2d4e" stroke="#1a1a2e" stroke-width="1.5"/>
  <ellipse cx="232" cy="235" rx="6"  ry="7.5" fill="#4ecca3" opacity="0.80"/>

</svg>