<svg xmlns="http://www.w3.org/2000/svg" viewBox="0 0 400 420">

  <!-- === SVG 4 — Right Now === -->

  <!-- === DECORATIVE FLOATING DOTS === -->
  <circle cx="28"  cy="55"  r="4"   fill="#4ecca3" opacity="0.40"/>
  <circle cx="372" cy="80"  r="3"   fill="#8ECAE6" opacity="0.35"/>
  <circle cx="20"  cy="190" r="3.5" fill="#4ecca3" opacity="0.30"/>
  <circle cx="382" cy="230" r="3"   fill="#8ECAE6" opacity="0.30"/>
  <circle cx="355" cy="390" r="2.5" fill="#4ecca3" opacity="0.25"/>

  <!-- === DESK SURFACE === -->
  <polygon points="30,290 370,290 388,310 12,310"
           fill="#1a1a2e" stroke="#2d2d4e" stroke-width="1.5"/>
  <polygon points="12,310 388,310 388,420 12,420"
           fill="#12121A" stroke="#2d2d4e" stroke-width="1.5"/>
  <line x1="30" y1="290" x2="370" y2="290" stroke="#4ecca3" stroke-width="0.6" opacity="0.20"/>
  <!-- Desk legs -->
  <rect x="28"  y="380" width="16" height="40" rx="3"
        fill="#0A0A0F" stroke="#2d2d4e" stroke-width="1.5"/>
  <rect x="356" y="380" width="16" height="40" rx="3"
        fill="#0A0A0F" stroke="#2d2d4e" stroke-width="1.5"/>

  <!-- === PLANT (left of desk) === -->
  <polygon points="52,284 76,284 72,302 56,302"
           fill="#1a1a2e" stroke="#2d2d4e" stroke-width="1.5"/>
  <ellipse cx="64" cy="284" rx="12" ry="4" fill="#0A0A0F" stroke="#2d2d4e" stroke-width="1.2"/>
  <ellipse cx="64" cy="270" rx="5" ry="12"
           fill="#4ecca3" opacity="0.75" transform="rotate(-20 64 270)"/>
  <ellipse cx="64" cy="270" rx="5" ry="12"
           fill="#4ecca3" opacity="0.65" transform="rotate(20 64 270)"/>
  <ellipse cx="64" cy="269" rx="4" ry="11" fill="#4ecca3" opacity="0.88"/>

  <!-- === COFFEE MUG (right of desk) === -->
  <rect x="312" y="264" width="34" height="28" rx="5"
        fill="#1a1a2e" stroke="#2d2d4e" stroke-width="1.5"/>
  <path d="M346,270 Q360,270 360,278 Q360,286 346,286"
        fill="none" stroke="#2d2d4e" stroke-width="2.2" stroke-linecap="round"/>
  <ellipse cx="329" cy="264" rx="17" ry="5"
           fill="#2d2d4e" stroke="#2d2d4e" stroke-width="1"/>
  <!-- Steam wisps -->
  <path d="M320,259 Q322,251 320,243"
        fill="none" stroke="#8ECAE6" stroke-width="1.5" stroke-linecap="round" opacity="0.60"/>
  <path d="M329,257 Q331,248 329,240"
        fill="none" stroke="#8ECAE6" stroke-width="1.5" stroke-linecap="round" opacity="0.50"/>
  <path d="M338,259 Q340,251 338,243"
        fill="none" stroke="#8ECAE6" stroke-width="1.5" stroke-linecap="round" opacity="0.40"/>

  <!-- === LAPTOP === -->
  <defs>
    <radialGradient id="screenGlow4" cx="50%" cy="50%" r="50%">
      <stop offset="0%"   stop-color="#4ecca3" stop-opacity="0.15"/>
      <stop offset="100%" stop-color="#4ecca3" stop-opacity="0"/>
    </radialGradient>
  </defs>
  <ellipse cx="200" cy="252" rx="90" ry="55" fill="url(#screenGlow4)"/>
  <!-- Screen lid -->
  <rect x="128" y="198" width="144" height="80" rx="7"
        fill="#0A0A0F" stroke="#2d2d4e" stroke-width="1.5"/>
  <rect x="135" y="204" width="130" height="68" rx="4" fill="#080810"/>
  <!-- STATUS text on screen -->
  <rect x="135" y="204" width="130" height="68" rx="4"
        fill="#4ecca3" opacity="0.03"/>
  <text x="200" y="232" text-anchor="middle" font-family="monospace"
        font-size="8" fill="#2d2d4e" opacity="0.5">&#9679;&#9679;&#9679;&#9679;&#9679;&#9679;&#9679;&#9679;&#9679;&#9679;&#9679;&#9679;</text>
  <text x="200" y="248" text-anchor="middle" font-family="monospace"
        font-size="11" fill="#4ecca3" font-weight="bold" opacity="0.95">STATUS: ACTIVE</text>
  <text x="200" y="262" text-anchor="middle" font-family="monospace"
        font-size="7.5" fill="#8ECAE6" opacity="0.70">[ building cool things ]</text>
  <!-- Webcam dot -->
  <circle cx="200" cy="206" r="2.2" fill="#2d2d4e"/>
  <!-- Laptop base -->
  <rect x="126" y="277" width="148" height="14" rx="4"
        fill="#1a1a2e" stroke="#2d2d4e" stroke-width="1.5"/>
  <rect x="138" y="279" width="124" height="9" rx="2" fill="#0A0A0F"/>
  <!-- Keyboard hints -->
  <line x1="154" y1="279" x2="154" y2="288" stroke="#2d2d4e" stroke-width="0.7"/>
  <line x1="170" y1="279" x2="170" y2="288" stroke="#2d2d4e" stroke-width="0.7"/>
  <line x1="186" y1="279" x2="186" y2="288" stroke="#2d2d4e" stroke-width="0.7"/>
  <line x1="202" y1="279" x2="202" y2="288" stroke="#2d2d4e" stroke-width="0.7"/>
  <line x1="218" y1="279" x2="218" y2="288" stroke="#2d2d4e" stroke-width="0.7"/>
  <line x1="234" y1="279" x2="234" y2="288" stroke="#2d2d4e" stroke-width="0.7"/>
  <line x1="250" y1="279" x2="250" y2="288" stroke="#2d2d4e" stroke-width="0.7"/>
  <!-- Trackpad -->
  <rect x="172" y="291" width="56" height="6" rx="2"
        fill="#0A0A0F" stroke="#2d2d4e" stroke-width="1"/>

  <!-- === CHAIR (back legs visible) === -->
  <rect x="110" y="330" width="12" height="88" rx="4"
        fill="#0A0A0F" stroke="#2d2d4e" stroke-width="1.5"/>
  <rect x="278" y="330" width="12" height="88" rx="4"
        fill="#0A0A0F" stroke="#2d2d4e" stroke-width="1.5"/>
  <!-- Chair seat -->
  <rect x="108" y="326" width="184" height="18" rx="6"
        fill="#1a1a2e" stroke="#2d2d4e" stroke-width="1.5"/>
  <!-- Armrests -->
  <rect x="104" y="298" width="16" height="52" rx="5"
        fill="#12121A" stroke="#2d2d4e" stroke-width="1.5"/>
  <rect x="280" y="298" width="16" height="52" rx="5"
        fill="#12121A" stroke="#2d2d4e" stroke-width="1.5"/>
  <!-- Chair back -->
  <rect x="116" y="220" width="168" height="108" rx="12"
        fill="#12121A" stroke="#2d2d4e" stroke-width="1.5"/>
  <rect x="124" y="228" width="152" height="92" rx="9"
        fill="#1a1a2e" opacity="0.7"/>

  <!-- === CHARACTER (sitting, leaning slightly back) === -->

  <!-- Legs/thighs on seat -->
  <path d="M162,326 Q150,370 148,406"
        fill="none" stroke="#1a1a2e" stroke-width="26" stroke-linecap="round"/>
  <path d="M238,326 Q250,370 252,406"
        fill="none" stroke="#1a1a2e" stroke-width="26" stroke-linecap="round"/>
  <ellipse cx="147" cy="408" rx="16" ry="7"
           fill="#0A0A0F" stroke="#2d2d4e" stroke-width="1.5"/>
  <ellipse cx="253" cy="408" rx="16" ry="7"
           fill="#0A0A0F" stroke="#2d2d4e" stroke-width="1.5"/>

  <!-- Left arm on armrest (relaxed) -->
  <path d="M155,278 Q128,290 116,310"
        fill="none" stroke="#2d2d4e" stroke-width="22" stroke-linecap="round"/>
  <ellipse cx="116" cy="312" rx="12" ry="9" fill="#FDBCB4"/>

  <!-- Right arm — peace/two-finger wave -->
  <path d="M245,280 Q272,272 284,300"
        fill="none" stroke="#2d2d4e" stroke-width="22" stroke-linecap="round"/>
  <ellipse cx="284" cy="302" rx="11" ry="10" fill="#FDBCB4"/>
  <!-- Peace fingers -->
  <line x1="284" y1="293" x2="279" y2="277"
        stroke="#FDBCB4" stroke-width="5" stroke-linecap="round"/>
  <line x1="289" y1="292" x2="292" y2="276"
        stroke="#FDBCB4" stroke-width="5" stroke-linecap="round"/>

  <!-- Hoodie body -->
  <rect x="153" y="268" width="94" height="64" rx="16"
        fill="#2d2d4e" stroke="#1a1a2e" stroke-width="1.5"/>
  <line x1="200" y1="271" x2="200" y2="328"
        stroke="#1a1a2e" stroke-width="1.2" opacity="0.6"/>
  <path d="M175,302 Q200,296 225,302 L225,318 Q200,314 175,318 Z"
        fill="#1a1a2e" stroke="#2d2d4e" stroke-width="1"/>
  <path d="M189,279 Q186,290 188,300"
        fill="none" stroke="#8ECAE6" stroke-width="1.2" stroke-linecap="round" opacity="0.55"/>
  <path d="M209,279 Q212,290 210,300"
        fill="none" stroke="#8ECAE6" stroke-width="1.2" stroke-linecap="round" opacity="0.55"/>

  <!-- Neck -->
  <rect x="191" y="256" width="18" height="16" rx="5" fill="#FDBCB4"/>

  <!-- Head (slight back lean) -->
  <ellipse cx="200" cy="232" rx="34" ry="32" fill="#FDBCB4"/>

  <!-- Hair -->
  <ellipse cx="200" cy="215" rx="35" ry="24" fill="#2C2C2C"/>
  <path d="M170,223 Q177,198 193,205 Q186,215 189,229" fill="#2C2C2C"/>
  <path d="M180,218 Q190,193 203,200 Q197,211 198,226" fill="#2C2C2C"/>
  <path d="M198,218 Q208,194 221,201 Q214,212 212,227" fill="#2C2C2C"/>
  <path d="M208,221 Q218,200 228,207 Q222,217 220,230" fill="#2C2C2C"/>
  <path d="M168,229 Q164,239 168,249"
        fill="none" stroke="#2C2C2C" stroke-width="9" stroke-linecap="round"/>
  <path d="M232,229 Q236,239 232,249"
        fill="none" stroke="#2C2C2C" stroke-width="9" stroke-linecap="round"/>

  <!-- Face (confident relaxed smile) -->
  <ellipse cx="189" cy="235" rx="4.5" ry="5" fill="#2C2C2C"/>
  <ellipse cx="211" cy="235" rx="4.5" ry="5" fill="#2C2C2C"/>
  <circle cx="190.8" cy="233.2" r="1.4" fill="white" opacity="0.85"/>
  <circle cx="212.8" cy="233.2" r="1.4" fill="white" opacity="0.85"/>
  <!-- Nose -->
  <path d="M197,243 Q200,247 203,243"
        fill="none" stroke="#e8a898" stroke-width="1.3" stroke-linecap="round"/>
  <!-- Relaxed confident smile -->
  <path d="M190,252 Q200,261 210,252"
        fill="none" stroke="#e8a898" stroke-width="1.8" stroke-linecap="round"/>
  <!-- Blush -->
  <ellipse cx="181" cy="244" rx="5.5" ry="3" fill="#e8a898" opacity="0.28"/>
  <ellipse cx="219" cy="244" rx="5.5" ry="3" fill="#e8a898" opacity="0.28"/>

  <!-- Headphones -->
  <path d="M168,231 Q168,199 200,197 Q232,199 232,229"
        fill="none" stroke="#1a1a2e" stroke-width="5.5" stroke-linecap="round"/>
  <ellipse cx="168" cy="235" rx="10" ry="12"
           fill="#2d2d4e" stroke="#1a1a2e" stroke-width="1.5"/>
  <ellipse cx="168" cy="235" rx="6"  ry="7.5" fill="#4ecca3" opacity="0.80"/>
  <ellipse cx="232" cy="233" rx="10" ry="12"
           fill="#2d2d4e" stroke="#1a1a2e" stroke-width="1.5"/>
  <ellipse cx="232" cy="233" rx="6"  ry="7.5" fill="#4ecca3" opacity="0.80"/>

</svg>
